ModelForces
version=1
nRows=4
nColumns=155
inDegrees=no

This file contains the forces exerted on a model during a simulation.

A force is a generalized force, meaning that it can be either a force (N) or a torque (Nm).

Units are S.I. units (second, meters, Newtons, ...)
Angles are in degrees.

endheader
time	glut_med1_r	glut_med2_r	glut_med3_r	glut_min1_r	glut_min2_r	glut_min3_r	semimem_r	semiten_r	bifemlh_r	bifemsh_r	sar_r	add_long_r	add_brev_r	add_mag1_r	add_mag2_r	add_mag3_r	tfl_r	pect_r	grac_r	glut_max1_r	glut_max2_r	glut_max3_r	iliacus_r	psoas_r	quad_fem_r	gem_r	peri_r	rect_fem_r	vas_med_r	vas_int_r	vas_lat_r	med_gas_r	lat_gas_r	soleus_r	tib_post_r	flex_dig_r	flex_hal_r	tib_ant_r	per_brev_r	per_long_r	per_tert_r	ext_dig_r	ext_hal_r	glut_med1_l	glut_med2_l	glut_med3_l	glut_min1_l	glut_min2_l	glut_min3_l	semimem_l	semiten_l	bifemlh_l	bifemsh_l	sar_l	add_long_l	add_brev_l	add_mag1_l	add_mag2_l	add_mag3_l	tfl_l	pect_l	grac_l	glut_max1_l	glut_max2_l	glut_max3_l	iliacus_l	psoas_l	quad_fem_l	gem_l	peri_l	rect_fem_l	vas_med_l	vas_int_l	vas_lat_l	med_gas_l	lat_gas_l	soleus_l	tib_post_l	flex_dig_l	flex_hal_l	tib_ant_l	per_brev_l	per_long_l	per_tert_l	ext_dig_l	ext_hal_l	ercspn_r	ercspn_l	intobl_r	intobl_l	extobl_r	extobl_l	femur_lat_meniscii_r.femur_lat_r.force.X	femur_lat_meniscii_r.femur_lat_r.force.Y	femur_lat_meniscii_r.femur_lat_r.force.Z	femur_lat_meniscii_r.femur_lat_r.torque.X	femur_lat_meniscii_r.femur_lat_r.torque.Y	femur_lat_meniscii_r.femur_lat_r.torque.Z	femur_lat_meniscii_r.meniscus_lat_r.force.X	femur_lat_meniscii_r.meniscus_lat_r.force.Y	femur_lat_meniscii_r.meniscus_lat_r.force.Z	femur_lat_meniscii_r.meniscus_lat_r.torque.X	femur_lat_meniscii_r.meniscus_lat_r.torque.Y	femur_lat_meniscii_r.meniscus_lat_r.torque.Z	femur_med_meniscii_r.femur_med_r.force.X	femur_med_meniscii_r.femur_med_r.force.Y	femur_med_meniscii_r.femur_med_r.force.Z	femur_med_meniscii_r.femur_med_r.torque.X	femur_med_meniscii_r.femur_med_r.torque.Y	femur_med_meniscii_r.femur_med_r.torque.Z	femur_med_meniscii_r.meniscus_med_r.force.X	femur_med_meniscii_r.meniscus_med_r.force.Y	femur_med_meniscii_r.meniscus_med_r.force.Z	femur_med_meniscii_r.meniscus_med_r.torque.X	femur_med_meniscii_r.meniscus_med_r.torque.Y	femur_med_meniscii_r.meniscus_med_r.torque.Z	femur_med_tibia_r.tibia_upper_r.force.X	femur_med_tibia_r.tibia_upper_r.force.Y	femur_med_tibia_r.tibia_upper_r.force.Z	femur_med_tibia_r.tibia_upper_r.torque.X	femur_med_tibia_r.tibia_upper_r.torque.Y	femur_med_tibia_r.tibia_upper_r.torque.Z	femur_med_tibia_r.femur_med_r.force.X	femur_med_tibia_r.femur_med_r.force.Y	femur_med_tibia_r.femur_med_r.force.Z	femur_med_tibia_r.femur_med_r.torque.X	femur_med_tibia_r.femur_med_r.torque.Y	femur_med_tibia_r.femur_med_r.torque.Z	femur_lat_tibia_r.tibia_upper_r.force.X	femur_lat_tibia_r.tibia_upper_r.force.Y	femur_lat_tibia_r.tibia_upper_r.force.Z	femur_lat_tibia_r.tibia_upper_r.torque.X	femur_lat_tibia_r.tibia_upper_r.torque.Y	femur_lat_tibia_r.tibia_upper_r.torque.Z	femur_lat_tibia_r.femur_lat_r.force.X	femur_lat_tibia_r.femur_lat_r.force.Y	femur_lat_tibia_r.femur_lat_r.force.Z	femur_lat_tibia_r.femur_lat_r.torque.X	femur_lat_tibia_r.femur_lat_r.torque.Y	femur_lat_tibia_r.femur_lat_r.torque.Z	aACL_R	pACL_R	aPCL_R	pPCL_R	aMCL_R	mMCL_R	pMCL_R	aLCL_R	mLCL_R	pLCL_R	aPCL_L	pPCL_L	aMCL_L	aLCL_L
      0.10897324	      9.28326789	     11.27572803	     12.16051033	      5.14600976	      5.89925060	      6.55065851	    114.71493440	    168.03392830	    228.11629810	    364.02221836	    126.10369166	     11.26094299	      7.96582539	      0.00000000	      4.83543451	      8.46716083	      5.04370462	      3.06812772	    100.26060772	      7.28946928	     11.10132955	      8.37742020	     32.99054183	     24.73487053	      7.03499620	      4.55420631	      4.26631659	     38.61825715	      0.00000000	      0.00000000	      0.00000000	     25.35922906	      0.76831199	      0.00000000	      0.00000000	      1.85906236	      0.00000000	     30.00273620	      3.11488207	      4.24338726	      5.32224088	     17.25777986	      5.39440163	      9.28326789	     11.27572803	     12.16051033	      5.14600976	      5.89925060	      6.55065851	      0.00000000	      8.49842801	     14.91041448	     14.17641793	      2.93228452	     11.26094299	      7.96582539	      0.00000000	      4.83543451	      8.46716083	      6.83846970	      3.06812772	      3.04208097	      7.28946928	     11.10132955	      8.37742020	     32.99054183	     24.73487053	      7.03499620	      4.55420631	      4.26631659	     23.38345594	      0.00000000	      0.00000000	      0.00000000	     16.54970932	      8.53489878	     58.11512957	     57.66178776	      7.80719474	      7.19486062	     16.79661597	      9.43883661	     21.76879595	      3.81819893	     11.66701209	      3.94323936	     48.46825689	     48.46825689	     18.40131506	     18.40131506	     35.34098887	     35.34098887	     51.15255539	    270.31738583	     42.43716519	    -24.00302405	      1.32201508	     19.97948178	    -51.15255539	   -270.31738583	    -42.43716519	      8.35531340	     -1.86052635	      2.31204835	    -29.08223079	     60.49163154	      7.66779506	     -1.70964848	      0.68895381	    -11.90072584	     29.08223079	    -60.49163154	     -7.66779506	     -1.09287377	     -0.70467283	      1.39539423	    -95.89306996	   -503.64222288	    113.06095407	    -11.89786002	      2.39636928	      0.61095271	     95.89306996	    503.64222288	   -113.06095407	     56.19159897	     -1.45589958	     41.14637103	    -37.10252964	   -137.24916235	    -34.59569405	      4.67330397	     -1.31861692	      0.21722901	     37.10252964	    137.24916235	     34.59569405	    -17.60659298	      0.88939899	     15.35602523	      8.62604561	    -12.26260939	      0.00000000	     59.18792242	      0.00000000	      0.00000000	    -37.96572914	      0.00000000	      0.00000000	      0.00000000	      0.00000000	      0.00000000	      0.00000001	      0.00000000
      0.10993630	      9.92153698	     11.20390470	     12.08323371	      5.11432829	      5.86432540	      6.51579000	    114.23476934	    167.73989942	    225.53605776	    361.56146116	    126.16895588	     11.18822604	      7.91722348	      0.00000000	      4.81576337	      8.41127708	      5.04490902	      3.59507984	    100.18125067	      7.24314331	     11.02988592	      8.32282720	     32.85582403	     24.58147177	      7.00646950	      4.53211417	      4.42824749	     38.42365872	      0.00000000	      0.00000000	      0.00000000	     27.44566808	      0.74736830	      0.00000000	      0.00000000	      1.49340452	      0.00000000	     29.81535577	      3.44857101	      4.42537952	      9.52030058	     17.42618080	      5.36751480	      9.92153698	     11.20390470	     12.08323371	      5.11432829	      5.86432540	      6.51579000	      0.00000000	      8.44148311	     14.89720136	     14.08724130	      2.91431299	     11.18822604	      7.91722348	      0.00000000	      4.81576337	      8.41127708	      6.80547975	      3.59507984	      3.02312672	      7.24314331	     11.02988592	      8.32282720	     32.85582403	     24.58147177	      7.00646950	      4.53211417	      4.42824749	     23.24444881	      0.00000000	      0.00000000	      0.00000000	     16.87125775	      8.65348208	     58.13818477	     57.55504710	      7.71098587	      7.09217668	     16.76327724	      9.39753427	     21.72402235	      3.79478441	     11.75403429	      3.96713992	     48.16924059	     48.16924059	     18.28011659	     18.28011659	     35.22935736	     35.22935736	     53.02288178	    272.38838772	     40.01380517	    -23.02975628	      1.36677442	     20.72561754	    -53.02288178	   -272.38838772	    -40.01380517	      8.30213552	     -1.88877083	      2.34358696	    -27.87766689	     61.26375275	      8.50249242	     -2.03295746	      0.65698162	    -11.40213354	     27.87766689	    -61.26375275	     -8.50249242	     -1.08942607	     -0.68608275	      1.37425945	   -101.58547417	   -506.32635873	    114.02168433	    -11.98092404	      2.51704313	      0.52967079	    101.58547417	    506.32635873	   -114.02168433	     56.62877417	     -1.55771452	     43.50849982	    -35.48675335	   -129.83998278	    -32.73149929	      4.40867076	     -1.26346519	      0.23065653	     35.48675335	    129.83998278	     32.73149929	    -16.65027158	      0.85295277	     14.66984009	      7.86325112	    -12.75530109	     26.78709357	     60.83322217	      0.00000000	      0.00000000	    -38.91236792	      0.00000000	      0.00000000	      0.00000000	      0.00000000	      0.00000000	      0.00000001	      0.00000000
      0.11096270	     10.49210411	     11.12836363	     12.00183283	      5.08101967	      5.82761181	      6.47839241	    113.56208928	    167.23913031	    222.33201173	    357.39261743	    126.01128007	     11.11178698	      7.86612306	      0.00000000	      4.79376456	      8.35238308	      5.03424437	      3.88065842	     99.91206021	      7.19436588	     10.95477399	      8.26543793	     32.71424909	     24.42025136	      6.97338756	      4.50887838	      4.58872876	     38.17027393	      0.00000000	      0.00000000	      0.00000000	     29.72859698	      0.71470182	      0.00000000	      0.00000000	      1.12177585	      0.00000000	     29.61926487	      3.82032604	      4.63300956	      3.97951846	     17.57280138	      5.34150161	     10.49210411	     11.12836363	     12.00183283	      5.08101967	      5.82761181	      6.47839241	      0.00000000	      8.38162287	     14.88038562	     13.99349409	      2.89541802	     11.11178698	      7.86612306	      0.00000000	      4.79376456	      8.35238308	      6.77064963	      3.88065842	      3.00320005	      7.19436588	     10.95477399	      8.26543793	     32.71424909	     24.42025136	      6.97338756	      4.50887838	      4.58872876	     23.09686617	      0.00000000	      0.00000000	      0.00000000	     17.19530105	      8.77281570	     58.14637689	     57.43948347	      7.61147290	      6.98606613	     16.72455051	      9.35295514	     21.67478887	      3.77015873	     11.83421094	      3.98622539	     47.85486963	     47.85486963	     18.15271144	     18.15271144	     35.11205700	     35.11205700	     59.50690585	    286.54802569	     37.56041246	    -22.33472146	      1.51398861	     23.34731120	    -59.50690585	   -286.54802569	    -37.56041246	      8.56370486	     -2.02848677	      2.39519155	    -27.04097930	     62.83784628	      9.09530920	     -2.23153647	      0.63319611	    -11.05704094	     27.04097930	    -62.83784628	     -9.09530920	     -1.11658209	     -0.67269010	      1.37571117	   -114.70433152	   -531.32537419	    119.52556963	    -12.57745131	      2.79294528	      0.37118135	    114.70433152	    531.32537419	   -119.52556963	     59.36254229	     -1.77990867	     49.03000252	    -36.69965564	   -128.73346980	    -31.99580012	      4.34336372	     -1.28938498	      0.20808046	     36.69965564	    128.73346980	     31.99580012	    -16.31101321	      0.87983233	     15.16680462	      6.95066805	    -13.39233875	     24.81829749	     57.64032067	      0.00000000	      0.00000000	      0.00000000	      0.00000000	      0.00000000	      0.00000000	      0.00000000	      0.00000000	      0.00000001	      0.00000000
      0.11198909	     10.96904235	     11.05385144	     11.92142891	      5.04817524	      5.79141532	      6.44081563	    113.03211928	    167.00526463	    219.30035017	    354.86711876	    126.15903313	     11.03642610	      7.81573241	      0.00000000	      4.77085706	      8.29417706	      5.02337095	      4.02161273	     99.88232060	      7.14620556	     10.88071187	      8.20885676	     32.57470999	     24.26133568	      6.93817892	      4.48595889	      4.73770578	     38.10923501	      0.00000000	      0.00000000	      0.00000000	     32.18582203	      0.69991783	      0.00000000	      0.00000000	      0.77352874	      0.00000000	     29.41829159	      4.20924512	      4.85436443	      5.30499849	     17.73329073	      5.30904637	     10.96904235	     11.05385144	     11.92142891	      5.04817524	      5.79141532	      6.44081563	      0.00000000	      8.32260643	     14.86082741	     13.90106304	      2.87678594	     11.03642610	      7.81573241	      0.00000000	      4.77085706	      8.29417706	      6.73616396	      4.02161273	      2.98355217	      7.14620556	     10.88071187	      8.20885676	     32.57470999	     24.26133568	      6.93817892	      4.48595889	      4.73770578	     22.94994558	      0.00000000	      0.00000000	      0.00000000	     17.50109104	      8.88521399	     58.14240884	     57.32216200	      7.51515572	      6.88351427	     16.68268621	      9.30785179	     21.62403706	      3.74586900	     11.90090616	      3.99881822	     47.54488263	     47.54488263	     18.02710070	     18.02710070	     34.99645669	     34.99645669	     59.49417515	    278.24452081	     37.79712588	    -22.23513637	      1.50115590	     23.34774704	    -59.49417515	   -278.24452081	    -37.79712588	      8.34641144	     -2.02276239	      2.35347648	    -24.81659189	     60.95242675	     10.05365869	     -2.67905011	      0.57783724	    -10.14275910	     24.81659189	    -60.95242675	    -10.05365869	     -1.04156076	     -0.63457187	      1.30271683	   -127.09048528	   -550.96300648	    124.38187874	    -13.07297017	      3.06053307	      0.22439879	    127.09048528	    550.96300648	   -124.38187874	     61.73700910	     -1.99554435	     54.21685726	    -37.07044737	   -126.84771777	    -31.76942475	      4.27961051	     -1.30286274	      0.20867182	     37.07044737	    126.84771777	     31.76942475	    -16.16938495	      0.89054191	     15.31132003	      8.01424200	    -12.14319890	     25.85421718	     60.87163808	      0.00000000	      0.00000000	      0.00000000	      0.00000000	      0.00000000	      0.00000000	      0.00000000	      0.00000000	      0.00000001	      0.00000000
